<?xml version="1.0" encoding="UTF-8" standalone="no"?>
<!-- Created with Inkscape (http://www.inkscape.org/) -->

<svg
   xmlns:osb="http://www.openswatchbook.org/uri/2009/osb"
   xmlns:dc="http://purl.org/dc/elements/1.1/"
   xmlns:cc="http://creativecommons.org/ns#"
   xmlns:rdf="http://www.w3.org/1999/02/22-rdf-syntax-ns#"
   xmlns:svg="http://www.w3.org/2000/svg"
   xmlns="http://www.w3.org/2000/svg"
   xmlns:sodipodi="http://sodipodi.sourceforge.net/DTD/sodipodi-0.dtd"
   xmlns:inkscape="http://www.inkscape.org/namespaces/inkscape"
   width="40"
   height="80"
   viewBox="0 0 10.583332 21.166767"
   version="1.1"
   id="svg8"
   sodipodi:docname="female_player.svg"
   inkscape:version="0.92.4 (5da689c313, 2019-01-14)">
  <defs
     id="defs2">
    <inkscape:path-effect
       effect="bspline"
       id="path-effect858"
       is_visible="true"
       weight="33.333333"
       steps="2"
       helper_size="0"
       apply_no_weight="true"
       apply_with_weight="true"
       only_selected="false" />
    <inkscape:path-effect
       effect="bspline"
       id="path-effect854"
       is_visible="true"
       weight="33.333333"
       steps="2"
       helper_size="0"
       apply_no_weight="true"
       apply_with_weight="true"
       only_selected="false" />
    <inkscape:path-effect
       effect="bspline"
       id="path-effect842"
       is_visible="true"
       weight="33.333333"
       steps="2"
       helper_size="0"
       apply_no_weight="true"
       apply_with_weight="true"
       only_selected="false" />
    <linearGradient
       id="linearGradient4542"
       osb:paint="solid">
      <stop
         style="stop-color:#00ff00;stop-opacity:1;"
         offset="0"
         id="stop4540" />
    </linearGradient>
    <inkscape:path-effect
       effect="bspline"
       id="path-effect3799"
       is_visible="true"
       weight="33.333333"
       steps="2"
       helper_size="0"
       apply_no_weight="true"
       apply_with_weight="true"
       only_selected="false" />
    <inkscape:path-effect
       effect="bspline"
       id="path-effect858-0"
       is_visible="true"
       weight="33.333333"
       steps="2"
       helper_size="0"
       apply_no_weight="true"
       apply_with_weight="true"
       only_selected="false" />
    <inkscape:path-effect
       effect="bspline"
       id="path-effect854-9"
       is_visible="true"
       weight="33.333333"
       steps="2"
       helper_size="0"
       apply_no_weight="true"
       apply_with_weight="true"
       only_selected="false" />
    <inkscape:path-effect
       effect="bspline"
       id="path-effect842-3"
       is_visible="true"
       weight="33.333333"
       steps="2"
       helper_size="0"
       apply_no_weight="true"
       apply_with_weight="true"
       only_selected="false" />
  </defs>
  <sodipodi:namedview
     id="base"
     pagecolor="#ffffff"
     bordercolor="#666666"
     borderopacity="1.0"
     inkscape:pageopacity="0.0"
     inkscape:pageshadow="2"
     inkscape:zoom="11.2"
     inkscape:cx="45.344058"
     inkscape:cy="23.454808"
     inkscape:document-units="px"
     inkscape:current-layer="layer1"
     showgrid="false"
     units="px"
     inkscape:window-width="2520"
     inkscape:window-height="1481"
     inkscape:window-x="-11"
     inkscape:window-y="843"
     inkscape:window-maximized="1" />
  <metadata
     id="metadata5">
    <rdf:RDF>
      <cc:Work
         rdf:about="">
        <dc:format>image/svg+xml</dc:format>
        <dc:type
           rdf:resource="http://purl.org/dc/dcmitype/StillImage" />
        <dc:title />
      </cc:Work>
    </rdf:RDF>
  </metadata>
  <g
     inkscape:label="Layer 1"
     inkscape:groupmode="layer"
     id="layer1"
     transform="translate(0,-275.83279)">
    <rect
       id="rect3713"
       width="4.5658927"
       height="13.753842"
       x="2.8558137"
       y="281.23877"
       style="fill:#ab08ab;fill-opacity:1;stroke-width:0.42358533"
       inkscape:export-xdpi="96"
       inkscape:export-ydpi="96" />
    <ellipse
       id="path3722"
       cx="5.136672"
       cy="281.37347"
       style="fill:#ab08ab;fill-opacity:1;stroke-width:0.49323991"
       inkscape:export-xdpi="96"
       inkscape:export-ydpi="96"
       rx="2.2857511"
       ry="1.8552701" />
    <ellipse
       style="fill:#333333;stroke-width:0.49463043"
       id="path3726"
       cx="7.3213201"
       cy="294.88217"
       rx="2.1139457"
       ry="1.5195864"
       inkscape:export-xdpi="96"
       inkscape:export-ydpi="96" />
    <ellipse
       style="fill:#333333;stroke-width:0.49463043"
       id="path3726-3"
       cx="3.180624"
       cy="294.97791"
       rx="2.1139457"
       ry="1.5195864"
       inkscape:export-xdpi="96"
       inkscape:export-ydpi="96" />
    <ellipse
       style="fill:#ffffff;stroke-width:0.57809049"
       id="path3745"
       cx="4.3139544"
       cy="282.91818"
       ry="0.84680235"
       rx="0.80461693"
       inkscape:export-xdpi="96"
       inkscape:export-ydpi="96" />
    <circle
       style="fill:#ffffff;stroke-width:0.32094839"
       id="path3745-8"
       cx="0.93141234"
       cy="290.03076"
       r="0" />
    <ellipse
       rx="0.80461693"
       ry="0.84680235"
       cy="282.93637"
       cx="6.448709"
       id="ellipse3780-9"
       style="fill:#ffffff;stroke-width:0.57809049"
       inkscape:export-xdpi="96"
       inkscape:export-ydpi="96" />
    <ellipse
       style="fill:#000000;stroke-width:1.0963484"
       id="path3801"
       cx="4.4537187"
       cy="282.95721"
       inkscape:export-xdpi="96"
       inkscape:export-ydpi="96"
       rx="0.23774411"
       ry="0.22923073" />
    <ellipse
       style="fill:#000000;stroke-width:1.09634852"
       id="path3801-5"
       cx="6.3490186"
       cy="282.95721"
       inkscape:export-xdpi="96"
       inkscape:export-ydpi="96"
       rx="0.23774411"
       ry="0.22923073" />
    <path
       style="fill:none;stroke:#000000;stroke-width:0.2645846px;stroke-linecap:butt;stroke-linejoin:miter;stroke-opacity:1"
       d="m 4.6458923,282.13888 c 0.00144,-0.005 0.00209,-0.008 0.00314,-0.01 0.00104,-0.002 0.00104,-0.002 0.00176,-0.005 7.181e-4,-0.003 0.00137,-0.005 0.00325,-0.009 0.00188,-0.004 0.0039,-0.008 0.00546,-0.0115 0.00156,-0.004 0.00311,-0.008 0.0064,-0.0137 0.00329,-0.006 0.00815,-0.0151 0.012711,-0.027 0.00456,-0.0118 0.00943,-0.0265 0.013794,-0.0376 0.00436,-0.0111 0.00785,-0.0188 0.010297,-0.0268 0.00244,-0.008 0.00454,-0.0164 0.00666,-0.0244 0.00212,-0.008 0.00422,-0.0157 0.00534,-0.0231 0.00113,-0.007 0.00179,-0.014 0.00303,-0.0212 0.00124,-0.007 0.00257,-0.0138 0.00343,-0.0211 8.672e-4,-0.007 0.00156,-0.0148 0.00282,-0.0224 0.00126,-0.008 0.00258,-0.0143 0.00344,-0.0218 8.557e-4,-0.008 0.00156,-0.0159 0.003,-0.0229 0.00144,-0.007 0.00271,-0.0114 0.00295,-0.0192 2.437e-4,-0.008 2.437e-4,-0.0188 8.383e-4,-0.0272 5.947e-4,-0.008 0.00123,-0.0128 0.00136,-0.0173 1.347e-4,-0.004 1.347e-4,-0.008 1.347e-4,-0.0112 0,-0.003 0,-0.003 0,-0.004 0,-10e-4 0,-10e-4 0.00104,-0.003 0.00105,-0.002 0.00105,-0.002 0.00105,-0.002"
       id="path840"
       inkscape:connector-curvature="0"
       inkscape:path-effect="#path-effect842"
       inkscape:original-d="m 4.6458923,282.13888 c 0.00334,-0.005 0.00404,-0.008 0.00209,-0.008 0.00334,-0.004 0.00404,-0.005 0.00209,-0.004 0.00334,-0.005 0.00404,-0.008 0.00209,-0.008 0.00473,-0.007 0.00682,-0.011 0.00626,-0.0125 0.00404,-0.006 0.00543,-0.01 0.00418,-0.0104 0.00752,-0.0117 0.012391,-0.0207 0.014616,-0.0271 0.00752,-0.0173 0.01239,-0.0319 0.014616,-0.0438 0.00613,-0.0103 0.00961,-0.018 0.010441,-0.023 0.00473,-0.011 0.00682,-0.0194 0.00627,-0.0251 0.00473,-0.0103 0.00682,-0.018 0.00626,-0.023 0.00334,-0.01 0.00404,-0.0166 0.00209,-0.0209 0.00404,-0.01 0.00543,-0.0166 0.00418,-0.0209 0.00334,-0.0103 0.00404,-0.0179 0.00209,-0.023 0.00404,-0.01 0.00543,-0.0166 0.00418,-0.0209 0.00334,-0.011 0.00404,-0.0194 0.00209,-0.0251 0.00404,-0.008 0.00543,-0.0124 0.00418,-0.0146 0.00265,-0.0138 0.00265,-0.0249 0,-0.0334 0.00334,-0.008 0.00404,-0.0124 0.00209,-0.0146 0.00265,-0.007 0.00265,-0.011 0,-0.0125 0.00265,-0.004 0.00265,-0.005 0,-0.004 0.00265,-0.003 0.00265,-0.004 0,-0.002 0.00334,-0.004 0.00404,-0.005 0.00209,-0.004"
       transform="rotate(4.3778753,4.6891289,281.94371)" />
    <path
       style="fill:none;stroke:#000000;stroke-width:0.2645846px;stroke-linecap:butt;stroke-linejoin:miter;stroke-opacity:1"
       d="m 4.166591,282.02218 c -0.00536,-0.009 -0.010298,-0.0165 -0.013359,-0.0217 -0.00306,-0.005 -0.00404,-0.007 -0.00501,-0.01 -9.631e-4,-0.003 -0.00195,-0.006 -0.0037,-0.008 -0.00175,-0.002 -0.0047,-0.005 -0.00833,-0.0122 -0.00362,-0.007 -0.00755,-0.0168 -0.011051,-0.0241 -0.0035,-0.007 -0.00626,-0.0119 -0.011685,-0.0212 -0.00542,-0.009 -0.013313,-0.0232 -0.021693,-0.0385 -0.00838,-0.0153 -0.017225,-0.032 -0.025553,-0.0461 -0.00833,-0.0141 -0.016202,-0.0259 -0.021664,-0.0367 -0.00546,-0.0108 -0.00842,-0.0197 -0.011945,-0.0274 -0.00352,-0.008 -0.00724,-0.0142 -0.011216,-0.024 -0.00398,-0.01 -0.00791,-0.0216 -0.01144,-0.0303 -0.00353,-0.009 -0.00632,-0.0143 -0.00826,-0.0204 -0.00194,-0.006 -0.00284,-0.0106 -0.00393,-0.0145 -0.0011,-0.004 -0.00208,-0.007 -0.00226,-0.0104 -1.765e-4,-0.004 -1.765e-4,-0.007 -1.765e-4,-0.01 0,-0.003 0,-0.007 0,-0.0144 0,-0.007 0,-0.0182 0,-0.0264"
       id="path852"
       inkscape:connector-curvature="0"
       inkscape:path-effect="#path-effect854"
       inkscape:original-d="m 4.166591,282.02218 c -0.00228,-0.0105 -0.0072,-0.0184 -0.014764,-0.0236 0.00167,-0.005 6.879e-4,-0.007 -0.00295,-0.006 0.00167,-0.006 6.879e-4,-0.009 -0.00295,-0.009 -3.175e-4,-0.006 -0.00326,-0.009 -0.00886,-0.009 -0.0013,-0.0125 -0.00523,-0.0223 -0.011811,-0.0295 -3.175e-4,-0.008 -0.00326,-0.0125 -0.00886,-0.0148 -0.00523,-0.0164 -0.013102,-0.0302 -0.023625,-0.0413 -0.00621,-0.0194 -0.015071,-0.0361 -0.026576,-0.0502 -0.00523,-0.0145 -0.013102,-0.0263 -0.023625,-0.0354 -3.175e-4,-0.0115 -0.00326,-0.0204 -0.00886,-0.0266 -0.0013,-0.01 -0.00523,-0.0164 -0.011811,-0.0207 -0.0013,-0.0145 -0.00523,-0.0263 -0.011811,-0.0354 -3.175e-4,-0.009 -0.00326,-0.0145 -0.00886,-0.0177 0.00167,-0.008 6.879e-4,-0.0125 -0.00295,-0.0148 0.00167,-0.006 6.879e-4,-0.009 -0.00295,-0.009 0.00265,-0.006 0.00265,-0.009 0,-0.009 0.00265,-0.007 0.00265,-0.0105 0,-0.0118 0.00265,-0.0135 0.00265,-0.0243 0,-0.0325"
       transform="rotate(12.484222,3.7022039,281.73552)" />
    <path
       style="fill:none;stroke:#000000;stroke-width:0.2645846px;stroke-linecap:butt;stroke-linejoin:miter;stroke-opacity:1"
       d="m 3.7325069,282.07533 c -0.0037,-0.002 -0.00862,-0.004 -0.012226,-0.005 -0.00361,-0.002 -0.00559,-0.003 -0.00777,-0.004 -0.00218,-9.8e-4 -0.00512,-0.002 -0.0086,-0.004 -0.00348,-0.002 -0.00642,-0.004 -0.00938,-0.006 -0.00296,-0.002 -0.0059,-0.004 -0.00999,-0.007 -0.00409,-0.003 -0.0088,-0.007 -0.01453,-0.0107 -0.00573,-0.004 -0.012437,-0.008 -0.023547,-0.0157 -0.01111,-0.008 -0.025875,-0.0198 -0.036853,-0.0288 -0.010978,-0.009 -0.017672,-0.0147 -0.025641,-0.0222 -0.00797,-0.007 -0.016845,-0.0163 -0.024197,-0.0232 -0.00735,-0.007 -0.013047,-0.0116 -0.019826,-0.0205 -0.00678,-0.009 -0.013671,-0.0207 -0.020024,-0.0299 -0.00635,-0.009 -0.012014,-0.0158 -0.016716,-0.0234 -0.0047,-0.008 -0.00747,-0.0141 -0.012397,-0.0249 -0.00492,-0.0108 -0.011828,-0.0256 -0.015681,-0.0372 -0.00385,-0.0116 -0.00477,-0.018 -0.00735,-0.0265 -0.00258,-0.009 -0.0065,-0.0193 -0.0099,-0.0287"
       id="path856"
       inkscape:connector-curvature="0"
       inkscape:path-effect="#path-effect858"
       inkscape:original-d="m 3.7325069,282.07533 c -0.00228,-0.005 -0.0072,-0.007 -0.014764,-0.006 6.879e-4,-0.004 -0.0013,-0.005 -0.00591,-0.003 -3.175e-4,-0.004 -0.00326,-0.005 -0.00886,-0.003 -3.175e-4,-0.005 -0.00326,-0.007 -0.00886,-0.006 -3.175e-4,-0.005 -0.00326,-0.007 -0.00886,-0.006 -0.00228,-0.007 -0.0072,-0.0105 -0.014764,-0.0118 -0.00424,-0.007 -0.011134,-0.0105 -0.020672,-0.0118 -0.012118,-0.0145 -0.026884,-0.0263 -0.044294,-0.0354 -0.00424,-0.009 -0.011134,-0.0145 -0.020672,-0.0177 -0.00621,-0.0115 -0.015071,-0.0204 -0.026577,-0.0266 -0.00326,-0.008 -0.00917,-0.0125 -0.017717,-0.0148 -0.00424,-0.0145 -0.011134,-0.0263 -0.020672,-0.0354 -0.00326,-0.01 -0.00917,-0.0164 -0.017717,-0.0207 -3.175e-4,-0.01 -0.00326,-0.0164 -0.00886,-0.0207 -0.00424,-0.0174 -0.011134,-0.0322 -0.020672,-0.0443 0.00167,-0.01 6.879e-4,-0.0164 -0.00295,-0.0207 -0.0013,-0.0135 -0.00523,-0.0243 -0.011811,-0.0325"
       transform="rotate(12.481635,2.1600919,281.91739)" />
    <path
       style="fill:none;stroke:#000000;stroke-width:0.2645846px;stroke-linecap:butt;stroke-linejoin:miter;stroke-opacity:1"
       d="m 4.6458923,282.13888 c 0.00144,-0.005 0.00209,-0.008 0.00314,-0.01 0.00104,-0.002 0.00104,-0.002 0.00176,-0.005 7.181e-4,-0.003 0.00137,-0.005 0.00325,-0.009 0.00188,-0.004 0.0039,-0.008 0.00546,-0.0115 0.00156,-0.004 0.00311,-0.008 0.0064,-0.0137 0.00329,-0.006 0.00815,-0.0151 0.012711,-0.027 0.00456,-0.0118 0.00943,-0.0265 0.013794,-0.0376 0.00436,-0.0111 0.00785,-0.0188 0.010297,-0.0268 0.00244,-0.008 0.00454,-0.0164 0.00666,-0.0244 0.00212,-0.008 0.00422,-0.0157 0.00534,-0.0231 0.00113,-0.007 0.00179,-0.014 0.00303,-0.0212 0.00124,-0.007 0.00257,-0.0138 0.00343,-0.0211 8.672e-4,-0.007 0.00156,-0.0148 0.00282,-0.0224 0.00126,-0.008 0.00258,-0.0143 0.00344,-0.0218 8.557e-4,-0.008 0.00156,-0.0159 0.003,-0.0229 0.00144,-0.007 0.00271,-0.0114 0.00295,-0.0192 2.437e-4,-0.008 2.437e-4,-0.0188 8.383e-4,-0.0272 5.947e-4,-0.008 0.00123,-0.0128 0.00136,-0.0173 1.347e-4,-0.004 1.347e-4,-0.008 1.347e-4,-0.0112 0,-0.003 0,-0.003 0,-0.004 0,-10e-4 0,-10e-4 0.00104,-0.003 0.00105,-0.002 0.00105,-0.002 0.00105,-0.002"
       id="path840-0"
       inkscape:connector-curvature="0"
       inkscape:path-effect="#path-effect842-3"
       inkscape:original-d="m 4.6458923,282.13888 c 0.00334,-0.005 0.00404,-0.008 0.00209,-0.008 0.00334,-0.004 0.00404,-0.005 0.00209,-0.004 0.00334,-0.005 0.00404,-0.008 0.00209,-0.008 0.00473,-0.007 0.00682,-0.011 0.00626,-0.0125 0.00404,-0.006 0.00543,-0.01 0.00418,-0.0104 0.00752,-0.0117 0.012391,-0.0207 0.014616,-0.0271 0.00752,-0.0173 0.01239,-0.0319 0.014616,-0.0438 0.00613,-0.0103 0.00961,-0.018 0.010441,-0.023 0.00473,-0.011 0.00682,-0.0194 0.00627,-0.0251 0.00473,-0.0103 0.00682,-0.018 0.00626,-0.023 0.00334,-0.01 0.00404,-0.0166 0.00209,-0.0209 0.00404,-0.01 0.00543,-0.0166 0.00418,-0.0209 0.00334,-0.0103 0.00404,-0.0179 0.00209,-0.023 0.00404,-0.01 0.00543,-0.0166 0.00418,-0.0209 0.00334,-0.011 0.00404,-0.0194 0.00209,-0.0251 0.00404,-0.008 0.00543,-0.0124 0.00418,-0.0146 0.00265,-0.0138 0.00265,-0.0249 0,-0.0334 0.00334,-0.008 0.00404,-0.0124 0.00209,-0.0146 0.00265,-0.007 0.00265,-0.011 0,-0.0125 0.00265,-0.004 0.00265,-0.005 0,-0.004 0.00265,-0.003 0.00265,-0.004 0,-0.002 0.00334,-0.004 0.00404,-0.005 0.00209,-0.004"
       transform="matrix(-0.9970823,0.07633401,0.07633401,0.9970823,-10.773113,0.48046902)" />
    <path
       style="fill:none;stroke:#000000;stroke-width:0.2645846px;stroke-linecap:butt;stroke-linejoin:miter;stroke-opacity:1"
       d="m 4.166591,282.02218 c -0.00536,-0.009 -0.010298,-0.0165 -0.013359,-0.0217 -0.00306,-0.005 -0.00404,-0.007 -0.00501,-0.01 -9.631e-4,-0.003 -0.00195,-0.006 -0.0037,-0.008 -0.00175,-0.002 -0.0047,-0.005 -0.00833,-0.0122 -0.00362,-0.007 -0.00755,-0.0168 -0.011051,-0.0241 -0.0035,-0.007 -0.00626,-0.0119 -0.011685,-0.0212 -0.00542,-0.009 -0.013313,-0.0232 -0.021693,-0.0385 -0.00838,-0.0153 -0.017225,-0.032 -0.025553,-0.0461 -0.00833,-0.0141 -0.016202,-0.0259 -0.021664,-0.0367 -0.00546,-0.0108 -0.00842,-0.0197 -0.011945,-0.0274 -0.00352,-0.008 -0.00724,-0.0142 -0.011216,-0.024 -0.00398,-0.01 -0.00791,-0.0216 -0.01144,-0.0303 -0.00353,-0.009 -0.00632,-0.0143 -0.00826,-0.0204 -0.00194,-0.006 -0.00284,-0.0106 -0.00393,-0.0145 -0.0011,-0.004 -0.00208,-0.007 -0.00226,-0.0104 -1.765e-4,-0.004 -1.765e-4,-0.007 -1.765e-4,-0.01 0,-0.003 0,-0.007 0,-0.0144 0,-0.007 0,-0.0182 0,-0.0264"
       id="path852-2"
       inkscape:connector-curvature="0"
       inkscape:path-effect="#path-effect854-9"
       inkscape:original-d="m 4.166591,282.02218 c -0.00228,-0.0105 -0.0072,-0.0184 -0.014764,-0.0236 0.00167,-0.005 6.879e-4,-0.007 -0.00295,-0.006 0.00167,-0.006 6.879e-4,-0.009 -0.00295,-0.009 -3.175e-4,-0.006 -0.00326,-0.009 -0.00886,-0.009 -0.0013,-0.0125 -0.00523,-0.0223 -0.011811,-0.0295 -3.175e-4,-0.008 -0.00326,-0.0125 -0.00886,-0.0148 -0.00523,-0.0164 -0.013102,-0.0302 -0.023625,-0.0413 -0.00621,-0.0194 -0.015071,-0.0361 -0.026576,-0.0502 -0.00523,-0.0145 -0.013102,-0.0263 -0.023625,-0.0354 -3.175e-4,-0.0115 -0.00326,-0.0204 -0.00886,-0.0266 -0.0013,-0.01 -0.00523,-0.0164 -0.011811,-0.0207 -0.0013,-0.0145 -0.00523,-0.0263 -0.011811,-0.0354 -3.175e-4,-0.009 -0.00326,-0.0145 -0.00886,-0.0177 0.00167,-0.008 6.879e-4,-0.0125 -0.00295,-0.0148 0.00167,-0.006 6.879e-4,-0.009 -0.00295,-0.009 0.00265,-0.006 0.00265,-0.009 0,-0.009 0.00265,-0.007 0.00265,-0.0105 0,-0.0118 0.00265,-0.0135 0.00265,-0.0243 0,-0.0325"
       transform="matrix(-0.97635557,0.21617076,0.21617076,0.97635557,-50.228056,5.876935)" />
    <path
       style="fill:none;stroke:#000000;stroke-width:0.2645846px;stroke-linecap:butt;stroke-linejoin:miter;stroke-opacity:1"
       d="m 3.7325069,282.07533 c -0.0037,-0.002 -0.00862,-0.004 -0.012226,-0.005 -0.00361,-0.002 -0.00559,-0.003 -0.00777,-0.004 -0.00218,-9.8e-4 -0.00512,-0.002 -0.0086,-0.004 -0.00348,-0.002 -0.00642,-0.004 -0.00938,-0.006 -0.00296,-0.002 -0.0059,-0.004 -0.00999,-0.007 -0.00409,-0.003 -0.0088,-0.007 -0.01453,-0.0107 -0.00573,-0.004 -0.012437,-0.008 -0.023547,-0.0157 -0.01111,-0.008 -0.025875,-0.0198 -0.036853,-0.0288 -0.010978,-0.009 -0.017672,-0.0147 -0.025641,-0.0222 -0.00797,-0.007 -0.016845,-0.0163 -0.024197,-0.0232 -0.00735,-0.007 -0.013047,-0.0116 -0.019826,-0.0205 -0.00678,-0.009 -0.013671,-0.0207 -0.020024,-0.0299 -0.00635,-0.009 -0.012014,-0.0158 -0.016716,-0.0234 -0.0047,-0.008 -0.00747,-0.0141 -0.012397,-0.0249 -0.00492,-0.0108 -0.011828,-0.0256 -0.015681,-0.0372 -0.00385,-0.0116 -0.00477,-0.018 -0.00735,-0.0265 -0.00258,-0.009 -0.0065,-0.0193 -0.0099,-0.0287"
       id="path856-9"
       inkscape:connector-curvature="0"
       inkscape:path-effect="#path-effect858-0"
       inkscape:original-d="m 3.7325069,282.07533 c -0.00228,-0.005 -0.0072,-0.007 -0.014764,-0.006 6.879e-4,-0.004 -0.0013,-0.005 -0.00591,-0.003 -3.175e-4,-0.004 -0.00326,-0.005 -0.00886,-0.003 -3.175e-4,-0.005 -0.00326,-0.007 -0.00886,-0.006 -3.175e-4,-0.005 -0.00326,-0.007 -0.00886,-0.006 -0.00228,-0.007 -0.0072,-0.0105 -0.014764,-0.0118 -0.00424,-0.007 -0.011134,-0.0105 -0.020672,-0.0118 -0.012118,-0.0145 -0.026884,-0.0263 -0.044294,-0.0354 -0.00424,-0.009 -0.011134,-0.0145 -0.020672,-0.0177 -0.00621,-0.0115 -0.015071,-0.0204 -0.026577,-0.0266 -0.00326,-0.008 -0.00917,-0.0125 -0.017717,-0.0148 -0.00424,-0.0145 -0.011134,-0.0263 -0.020672,-0.0354 -0.00326,-0.01 -0.00917,-0.0164 -0.017717,-0.0207 -3.175e-4,-0.01 -0.00326,-0.0164 -0.00886,-0.0207 -0.00424,-0.0174 -0.011134,-0.0322 -0.020672,-0.0443 0.00167,-0.01 6.879e-4,-0.0164 -0.00295,-0.0207 -0.0013,-0.0135 -0.00523,-0.0243 -0.011811,-0.0325"
       transform="matrix(-0.97636533,0.21612667,0.21612667,0.97636533,-50.218457,6.2119528)" />
    <rect
       style="opacity:1;vector-effect:none;fill:#000000;fill-opacity:0.99612403;fill-rule:evenodd;stroke-width:0.06907635;stroke-linecap:butt;stroke-linejoin:miter;stroke-miterlimit:4;stroke-dasharray:none;stroke-dashoffset:0;stroke-opacity:1"
       id="rect920"
       width="0.93608612"
       height="0.62897897"
       x="4.8575821"
       y="284.8895" />
  </g>
</svg>
