<?xml version="1.0" encoding="UTF-8" standalone="no"?>
<!-- Created with Inkscape (http://www.inkscape.org/) -->

<svg
   xmlns:osb="http://www.openswatchbook.org/uri/2009/osb"
   xmlns:dc="http://purl.org/dc/elements/1.1/"
   xmlns:cc="http://creativecommons.org/ns#"
   xmlns:rdf="http://www.w3.org/1999/02/22-rdf-syntax-ns#"
   xmlns:svg="http://www.w3.org/2000/svg"
   xmlns="http://www.w3.org/2000/svg"
   xmlns:sodipodi="http://sodipodi.sourceforge.net/DTD/sodipodi-0.dtd"
   xmlns:inkscape="http://www.inkscape.org/namespaces/inkscape"
   width="40"
   height="80"
   viewBox="0 0 10.583332 21.166767"
   version="1.1"
   id="svg8"
   sodipodi:docname="old_male_player.svg"
   inkscape:version="0.92.4 (5da689c313, 2019-01-14)"
   inkscape:export-filename="D:\Code\Godot\Assets\Player\OldMaleBody.png"
   inkscape:export-xdpi="96"
   inkscape:export-ydpi="96">
  <defs
     id="defs2">
    <linearGradient
       id="linearGradient4542"
       osb:paint="solid">
      <stop
         style="stop-color:#00ff00;stop-opacity:1;"
         offset="0"
         id="stop4540" />
    </linearGradient>
    <inkscape:path-effect
       effect="bspline"
       id="path-effect3799"
       is_visible="true"
       weight="33.333333"
       steps="2"
       helper_size="0"
       apply_no_weight="true"
       apply_with_weight="true"
       only_selected="false" />
  </defs>
  <sodipodi:namedview
     id="base"
     pagecolor="#ffffff"
     bordercolor="#666666"
     borderopacity="1.0"
     inkscape:pageopacity="0.0"
     inkscape:pageshadow="2"
     inkscape:zoom="11.2"
     inkscape:cx="12.284263"
     inkscape:cy="22.588531"
     inkscape:document-units="px"
     inkscape:current-layer="layer1"
     showgrid="false"
     units="px"
     inkscape:window-width="3840"
     inkscape:window-height="2066"
     inkscape:window-x="2509"
     inkscape:window-y="-11"
     inkscape:window-maximized="1" />
  <metadata
     id="metadata5">
    <rdf:RDF>
      <cc:Work
         rdf:about="">
        <dc:format>image/svg+xml</dc:format>
        <dc:type
           rdf:resource="http://purl.org/dc/dcmitype/StillImage" />
        <dc:title></dc:title>
      </cc:Work>
    </rdf:RDF>
  </metadata>
  <g
     inkscape:label="Layer 1"
     inkscape:groupmode="layer"
     id="layer1"
     transform="translate(0,-275.83279)">
    <rect
       id="rect3713"
       width="5.2155423"
       height="15.086337"
       x="2.3006585"
       y="279.90628"
       style="fill:#803980;stroke-width:0.47414115;fill-opacity:1"
       inkscape:export-xdpi="96"
       inkscape:export-ydpi="96" />
    <ellipse
       id="path3722"
       cx="4.9084296"
       cy="279.90628"
       style="fill:#803980;stroke-width:0.61332577;fill-opacity:1"
       inkscape:export-xdpi="96"
       inkscape:export-ydpi="96"
       rx="2.6077712"
       ry="2.5143895" />
    <ellipse
       style="fill:#333333;stroke-width:0.61017787"
       id="path3726"
       cx="7.8049607"
       cy="294.87097"
       rx="2.6077712"
       ry="1.8745673"
       inkscape:export-xdpi="96"
       inkscape:export-ydpi="96" />
    <ellipse
       style="fill:#333333;stroke-width:0.61017787"
       id="path3726-3"
       cx="2.6969831"
       cy="294.98911"
       rx="2.6077712"
       ry="1.8745673"
       inkscape:export-xdpi="96"
       inkscape:export-ydpi="96" />
    <ellipse
       style="fill:#ffffff;stroke-width:0.54339468"
       id="path3745"
       cx="4.1366882"
       cy="281.74759"
       ry="0.76951969"
       rx="0.78233135"
       inkscape:export-xdpi="96"
       inkscape:export-ydpi="96" />
    <path
       style="fill:none;stroke:#000000;stroke-width:0.45805219px;stroke-linecap:butt;stroke-linejoin:miter;stroke-opacity:1"
       d="M 3.8653212,284.58195 H 6.4730927"
       id="path3749"
       inkscape:connector-curvature="0"
       inkscape:export-xdpi="96"
       inkscape:export-ydpi="96" />
    <circle
       style="fill:#ffffff;stroke-width:0.32094839"
       id="path3745-8"
       cx="0.93141234"
       cy="290.03076"
       r="0" />
    <ellipse
       rx="0.78233135"
       ry="0.81876975"
       cy="281.76712"
       cx="6.212316"
       id="ellipse3780-9"
       style="fill:#ffffff;stroke-width:0.56051397"
       inkscape:export-xdpi="96"
       inkscape:export-ydpi="96" />
    <ellipse
       style="fill:#000000;stroke-width:1.20256448"
       id="path3801"
       cx="4.1570206"
       cy="281.7912"
       inkscape:export-xdpi="96"
       inkscape:export-ydpi="96"
       rx="0.26077715"
       ry="0.25143898" />
    <ellipse
       style="fill:#000000;stroke-width:1.2025646"
       id="path3801-5"
       cx="6.23594"
       cy="281.7912"
       inkscape:export-xdpi="96"
       inkscape:export-ydpi="96"
       rx="0.26077715"
       ry="0.25143898" />
    <path
       style="fill:none;stroke:#000000;stroke-width:0.2645846px;stroke-linecap:butt;stroke-linejoin:miter;stroke-opacity:1"
       d="m 3.8033777,278.47864 c 0.062996,0 0.1259926,0 0.1889891,0 0.015748,0 0.031498,0 0.047247,0 0.00787,0 0.016582,0.004 0.023625,0 0.00996,-0.005 0.01306,-0.0201 0.023625,-0.0236 0.013438,-0.004 0.095868,0 0.1181179,0 0.010639,0 0.063682,-0.004 0.070871,0 0.00996,0.005 0.013663,0.0186 0.023625,0.0236 0.00704,0.004 0.015748,0 0.023625,0 0.00787,0.008 0.013663,0.0186 0.023625,0.0236 0.012817,0.006 0.088031,-0.006 0.094495,0 0.00557,0.006 -0.00557,0.0181 0,0.0236 0.011136,0.0111 0.033161,-0.007 0.047247,0 0.00996,0.005 0.013663,0.0186 0.023625,0.0236 0.00704,0.004 0.015748,0 0.023625,0 0.00787,0 0.015748,0 0.023625,0 0.039373,0 0.078745,0 0.118118,0 0.00787,0 0.016582,-0.004 0.023625,0 0.00996,0.005 0.013663,0.0186 0.023625,0.0236 0.00719,0.004 0.060232,0 0.070871,0 0.047247,0 0.094495,0 0.1417416,0 0.062997,0 0.1259928,0 0.1889891,0 0.00787,0 0.018055,0.006 0.023625,0 0.00557,-0.006 -0.00557,-0.0181 0,-0.0236 0.00106,-10e-4 0.1069794,0 0.1181179,0 0.00787,0 0.018055,0.006 0.023625,0 0.00557,-0.006 -0.00557,-0.0181 0,-0.0236 0.00646,-0.006 0.081679,0.006 0.094494,0 0.00996,-0.005 0.013663,-0.0186 0.023625,-0.0236 0.00937,-0.005 0.066041,0.005 0.070871,0 0.00557,-0.006 -0.00557,-0.018 0,-0.0236 0.00483,-0.005 0.061504,0.005 0.070871,0 0.00996,-0.005 0.013663,-0.0186 0.023625,-0.0236 0.00854,-0.004 0.1016867,0 0.118118,0 0.015523,0 0.057542,0.004 0.070871,0 0.016706,-0.006 0.030165,-0.0194 0.047247,-0.0236 0.037057,-0.009 0.081061,0.009 0.118118,0 0.017082,-0.004 0.030165,-0.0194 0.047247,-0.0236 0.01528,-0.004 0.031498,0 0.047247,0 0.015748,-0.008 0.030543,-0.0181 0.047247,-0.0236 0.02241,-0.007 0.047953,0.006 0.070871,0 0.017082,-0.004 0.030543,-0.0181 0.047247,-0.0236 0.014827,-0.005 0.075477,0 0.094494,0"
       id="path4635"
       inkscape:connector-curvature="0" />
    <path
       style="fill:none;stroke:#000000;stroke-width:0.2645846px;stroke-linecap:butt;stroke-linejoin:miter;stroke-opacity:1"
       d="m 4.0868613,279.16372 c 0.078745,0 0.1574908,0 0.2362362,0 0.015748,0 0.031968,-0.004 0.047247,0 0.034164,0.009 0.06033,0.0387 0.094494,0.0472 0.01528,0.004 0.032306,-0.005 0.047247,0 0.010565,0.004 0.01306,0.0201 0.023625,0.0236 0.0127,0.004 0.074493,0 0.094494,0 0.078745,0 0.1574908,0 0.2362362,0 0.012354,0 0.088283,0.003 0.094495,0 0.00996,-0.005 0.013663,-0.0186 0.023625,-0.0236 0.00937,-0.005 0.066041,0.005 0.070871,0 0.00557,-0.006 -0.00557,-0.0181 0,-0.0236 0.011136,-0.0111 0.036111,0.0111 0.047247,0 0.00557,-0.006 -0.00557,-0.0181 0,-0.0236 0.011136,-0.0111 0.033161,0.007 0.047247,0 0.00787,-0.008 0.015748,-0.0158 0.023625,-0.0236 0.00787,-0.008 0.013663,-0.0186 0.023625,-0.0236 0.014087,-0.007 0.036111,0.0111 0.047247,0 0.00557,-0.006 -0.00557,-0.0181 0,-0.0236 0.011136,-0.0111 0.036111,0.0111 0.047247,0 0.00557,-0.006 -0.00557,-0.0181 0,-0.0236 0.00646,-0.006 0.081679,0.006 0.094495,0 0.00996,-0.005 0.013663,-0.0186 0.023625,-0.0236 0.00704,-0.004 0.018055,0.006 0.023625,0 0.048878,-0.0489 -0.074692,0.002 0.023625,-0.0472 0.00704,-0.004 0.016582,0.004 0.023625,0 0.00996,-0.005 0.013663,-0.0186 0.023625,-0.0236 0.00704,-0.004 0.016582,0.004 0.023625,0 0.00996,-0.005 0.013663,-0.0186 0.023625,-0.0236 0.062996,0 -0.00787,0.008 0.023625,-0.0236 0.011136,-0.0111 0.033161,0.007 0.047247,0 0.00996,-0.005 0.013663,-0.0186 0.023625,-0.0236 0.014086,-0.007 0.033161,0.007 0.047247,0 0.00996,-0.005 0.018643,-0.0137 0.023625,-0.0236 0.00352,-0.007 -0.00704,-0.0201 0,-0.0236 0.014087,-0.007 0.031969,0.004 0.047247,0 0.034165,-0.009 0.061086,-0.0361 0.094495,-0.0473 0.030801,-0.0103 0.063693,-0.0134 0.094494,-0.0236 0.016703,-0.006 0.030543,-0.0181 0.047247,-0.0236 0.00747,-0.002 0.016153,0.002 0.023625,0 0.016703,-0.006 0.030543,-0.018 0.047247,-0.0236 0.00747,-0.002 0.016582,0.004 0.023625,0 0.00996,-0.005 0.013663,-0.0186 0.023625,-0.0236 0.00704,-0.004 0.015748,0 0.023625,0 0.00787,0 0.015748,0 0.023625,0 0.00787,0 0.015748,0 0.023625,0 0.00787,0 0.027357,0.007 0.023625,0 -0.056981,-0.1058 -0.1259807,-0.20468 -0.1889711,-0.30703"
       id="path4637"
       inkscape:connector-curvature="0" />
    <path
       style="fill:#ffffff;stroke:#000000;stroke-width:0.13229229;stroke-linecap:butt;stroke-linejoin:miter;stroke-opacity:1;fill-opacity:1;stroke-miterlimit:4;stroke-dasharray:none"
       d="m 3.8653212,284.58195 c 0.042349,0.13894 0.08679,0.27725 0.1270456,0.41681 0.014102,0.0489 -0.00623,0.006 -0.023625,0.0236 -0.00634,0.006 0.00555,0.0779 0,0.0945 -0.00557,0.0167 -0.018055,0.0305 -0.023625,0.0472 -0.00249,0.007 0,0.0157 0,0.0236 0,0.0274 0.00536,0.0967 0,0.11812 -0.00427,0.0171 -0.019354,0.0302 -0.023625,0.0472 -0.00382,0.0153 0.00382,0.032 0,0.0472 -0.00427,0.0171 -0.019354,0.0302 -0.023625,0.0473 -0.00573,0.0229 0.00747,0.0485 0,0.0709 -0.00557,0.0167 -0.018055,0.0305 -0.023625,0.0472 -0.00249,0.007 0.00249,0.0162 0,0.0236 -0.00557,0.0167 -0.018055,0.0305 -0.023625,0.0472 -0.00456,0.0137 0,0.074 0,0.0945 0,0.0709 0,0.14174 0,0.21261 0,0.0473 0,0.0945 0,0.14175 0,0.008 0,0.0157 0,0.0236 0,0.008 -0.00352,0.0166 0,0.0236 0.00498,0.01 0.018643,0.0137 0.023625,0.0236 0.00766,0.0153 -0.00742,0.11948 0,0.14174 0.00557,0.0167 0.018055,0.0305 0.023625,0.0472 0.00249,0.007 -0.00249,0.0162 0,0.0236 0.00557,0.0167 0.018055,0.0305 0.023625,0.0473 0.00542,0.0163 -0.00697,0.0569 0,0.0709 0.00498,0.01 0.018643,0.0137 0.023625,0.0236 0.00352,0.007 0,0.0157 0,0.0236 0,0.008 0,0.0158 0,0.0236 0,0.0168 -0.00305,0.13564 0,0.14174 0.00996,0.0199 0.037287,0.0273 0.047247,0.0473 0.00352,0.007 -0.00352,0.0166 0,0.0236 0.00498,0.01 0.013663,0.0186 0.023625,0.0236 0.00704,0.004 0.023625,-0.008 0.023625,0 0,0.008 -0.029192,0.006 -0.023625,0 0.024903,-0.0249 0.069593,-0.0223 0.094495,-0.0472 0.00557,-0.006 -0.00249,-0.0162 0,-0.0236 0.011136,-0.0334 0.031498,-0.063 0.047247,-0.0945 0.015748,-0.0315 0.033375,-0.0621 0.047247,-0.0945 0.019619,-0.0458 0.024974,-0.0972 0.047247,-0.14175 0.020534,-0.0411 0.053211,-0.0757 0.070871,-0.11811 0.022048,-0.0529 0.027656,-0.11149 0.047247,-0.16537 0.012036,-0.0331 0.031498,-0.063 0.047247,-0.0945 0.015748,-0.0394 0.033837,-0.0779 0.047247,-0.11812 0.010266,-0.0308 0.014703,-0.0633 0.023625,-0.0945 0.00684,-0.0239 0.015748,-0.0472 0.023625,-0.0709 0.00787,-0.0236 0.014375,-0.0478 0.023625,-0.0709 0.013078,-0.0327 0.036111,-0.0611 0.047247,-0.0945 0.00249,-0.007 -0.00352,-0.0166 0,-0.0236 0.00498,-0.01 0.018643,-0.0137 0.023625,-0.0236 0.00352,-0.007 -0.00787,-0.0236 0,-0.0236 0.00787,0 0,0.0157 0,0.0236 0,0.008 0,0.0157 0,0.0236 0,0.0551 0,0.11024 0,0.16536 0,0.17324 0,0.34648 0,0.51972 0,0.11812 0,0.23624 0,0.35435 0,0.0394 -0.00392,0.0789 0,0.11812 0.004,0.04 0.01919,0.0782 0.023625,0.11812 0.00348,0.0313 -0.00683,0.0637 0,0.0945 0.0092,0.0414 0.036963,0.077 0.047247,0.11811 0.00573,0.0229 -0.00388,0.0476 0,0.0709 0.00409,0.0246 0.018741,0.0465 0.023625,0.0709 0.033223,0.16611 -0.087789,-0.16888 0.023625,0.16536 0.00352,0.0106 0.018643,0.0137 0.023625,0.0236 0.00352,0.007 -0.00557,0.0181 0,0.0236 0.00557,0.006 0.018055,-0.006 0.023625,0 0.011136,0.0111 -0.011136,0.0361 0,0.0473 0.00557,0.006 0.018055,-0.006 0.023625,0 0.00557,0.006 -0.00557,0.018 0,0.0236 0.00557,0.006 0.018055,-0.006 0.023625,0 0.00557,0.006 -0.00557,0.0181 0,0.0236 0.011136,0.0111 0.033161,-0.007 0.047247,0 0.098316,0.0492 -0.025255,-0.002 0.023625,0.0473 0.00557,0.006 0.015748,0 0.023625,0 0.00787,0 0.015748,0 0.023625,0 0.012353,0 0.088283,0.003 0.094495,0 0.020939,-0.0105 0.049366,-0.0565 0.070871,-0.0709 0.034426,-0.023 0.049205,-0.0147 0.070871,-0.0473 0.085643,-0.17128 -0.024903,0.0374 0.047247,-0.0709 0.00977,-0.0146 0.01306,-0.0332 0.023625,-0.0472 0.013348,-0.0178 0.031482,-0.0315 0.047231,-0.0473 0.00787,-0.008 0.017894,-0.0141 0.023625,-0.0236 0.058201,-0.097 0.029119,-0.0836 0.094495,-0.16537 0.013914,-0.0174 0.034893,-0.0287 0.047247,-0.0473 0.019534,-0.0293 0.031498,-0.063 0.047247,-0.0945 0.023625,-0.0472 0.043693,-0.0965 0.070871,-0.14174 1.336e-4,-2.3e-4 0.1410755,-0.18806 0.1417417,-0.18899 0.078135,-0.10939 0.024326,-0.0548 0.1417416,-0.18899 0.023625,-0.0236 0.047247,-0.0473 0.070871,-0.0709 0.00787,-0.0236 0.00868,-0.051 0.023625,-0.0709 0.010565,-0.0141 0.034797,-0.0112 0.047247,-0.0236 0.027145,-0.0271 0.023625,-0.0418 0.023625,-0.0709 0,-0.008 -0.00787,-0.0236 0,-0.0236 0.00787,0 0,0.0157 0,0.0236 0,0.008 0,0.0157 0,0.0236 0,0.0472 0,0.0945 0,0.14174 0,0.11812 0,0.23623 0,0.35435 0,0.0709 0,0.14174 0,0.21261 0,0.008 0,0.0157 0,0.0236 0,0.008 -0.00557,0.0181 0,0.0236 0.00557,0.006 0.018055,-0.006 0.023625,0 0.011136,0.0111 -0.00704,0.0332 0,0.0473 0.00498,0.01 0.018643,0.0137 0.023625,0.0236 0.00704,0.0141 -0.011136,0.0361 0,0.0472 0.00557,0.006 0.018055,-0.006 0.023625,0 0.011136,0.0111 -0.011136,0.0361 0,0.0473 0.00557,0.006 0.018055,-0.006 0.023625,0 0.012451,0.0125 0.013856,0.0326 0.023625,0.0472 0.00668,0.01 0.061097,0.066 0.070871,0.0709 0.00704,0.004 0.016582,-0.004 0.023625,0 0.025395,0.0127 0.046525,0.0326 0.070871,0.0473 0.0151,0.009 0.033161,0.0131 0.047247,0.0236 0.017817,0.0134 0.027326,0.0373 0.047247,0.0472 0.044545,0.0223 0.096403,0.0266 0.1417417,0.0472 0.0418,0.019 0.078457,0.0477 0.1181179,0.0709 0.054839,0.032 0.1085813,0.0661 0.1653654,0.0945 0.05364,0.0268 0.1100079,0.0478 0.1653654,0.0709 0.00668,0.003 0.1332511,0.0495 0.1653653,0.0709 0.00927,0.006 0.013663,0.0186 0.023625,0.0236 0.00704,0.004 0.023625,-0.008 0.023625,0 0,0.008 -0.015748,0 -0.023625,0 -0.00787,0 -0.016582,0.004 -0.023625,0 -0.00996,-0.005 -0.013663,-0.0186 -0.023625,-0.0236 -0.00704,-0.004 -0.016582,0.004 -0.023625,0 -0.00996,-0.005 -0.015748,-0.0157 -0.023625,-0.0236 -0.00787,-0.008 -0.018643,-0.0137 -0.023625,-0.0236 -0.00704,-0.0141 0.00498,-0.0323 0,-0.0473 -0.066714,-0.20014 0.033357,0.2335 -0.023625,-0.16536 -0.00249,-0.0174 -0.018055,-0.0305 -0.023625,-0.0472 -0.00249,-0.007 0,-0.0158 0,-0.0236 0,-0.0315 0,-0.063 0,-0.0945 0,-0.0157 0.00382,-0.032 0,-0.0472 -0.00427,-0.0171 -0.019354,-0.0302 -0.023625,-0.0473 -0.00777,-0.0311 0.00978,-0.0888 0,-0.11812 -0.00352,-0.0106 -0.020103,-0.0131 -0.023625,-0.0236 -0.00498,-0.0149 0,-0.0315 0,-0.0473 0,-0.008 0.00352,-0.0166 0,-0.0236 -0.00498,-0.01 -0.018643,-0.0137 -0.023625,-0.0236 -0.00352,-0.007 0.00557,-0.018 0,-0.0236 -0.00557,-0.006 -0.020103,0.007 -0.023625,0 -0.00704,-0.0141 0.00498,-0.0323 0,-0.0472 -0.00352,-0.0106 -0.018643,-0.0137 -0.023625,-0.0236 -0.00352,-0.007 0.00352,-0.0166 0,-0.0236 -0.00498,-0.01 -0.018643,-0.0137 -0.023625,-0.0236 -0.00704,-0.0141 0.011136,-0.0361 0,-0.0473 -0.00557,-0.006 -0.018055,0.006 -0.023625,0 -0.012451,-0.0125 -0.013856,-0.0326 -0.023625,-0.0472 -0.012353,-0.0185 -0.037287,-0.0273 -0.047247,-0.0472 -0.012988,-0.026 0.022752,-0.0477 -0.023625,-0.0709 -0.025199,-0.0126 -0.031577,0.0234 -0.047247,-0.0236 -0.00498,-0.0149 0.00382,-0.032 0,-0.0473 -0.00427,-0.0171 -0.015748,-0.0315 -0.023625,-0.0472 -0.00787,-0.0236 -0.018741,-0.0465 -0.023625,-0.0709 -0.00309,-0.0155 0.00382,-0.032 0,-0.0473 -0.00853,-0.0342 -0.041449,-0.0598 -0.047238,-0.0945 -0.00518,-0.0311 0.00518,-0.0634 0,-0.0945 -0.00579,-0.0347 -0.040341,-0.06 -0.047247,-0.0945 -0.00463,-0.0232 0,-0.0473 0,-0.0709 -0.00787,-0.0236 -0.017584,-0.0467 -0.023625,-0.0709 -0.00505,-0.0202 0,-0.0945 0,-0.11812 0,-0.0788 0,-0.15749 0,-0.23624 0,-0.0158 0,-0.0315 0,-0.0472 0,-0.0158 0.00498,-0.0323 0,-0.0473 -0.00352,-0.0106 -0.018643,-0.0137 -0.023625,-0.0236 -0.00945,-0.0189 0.00945,-0.052 0,-0.0709 -0.00498,-0.01 -0.018643,-0.0137 -0.023625,-0.0236 -0.00352,-0.007 0,-0.0158 0,-0.0236 0,-0.008 0,-0.0158 0,-0.0236 0,-0.0473 0,-0.0945 0,-0.14174 0,-0.0158 0.00382,-0.032 0,-0.0473 -0.00427,-0.0171 -0.019354,-0.0302 -0.023625,-0.0472 -0.00382,-0.0153 0.00382,-0.032 0,-0.0473 -0.00427,-0.0171 -0.015748,-0.0315 -0.023625,-0.0473 -0.00787,-0.0157 -0.015748,-0.0315 -0.023625,-0.0472 -0.00787,-0.0157 -0.013856,-0.0326 -0.023625,-0.0472 -0.013589,-0.0204 -0.052419,-0.0524 -0.070871,-0.0709 -0.00787,-0.008 -0.015748,-0.0158 -0.023625,-0.0236 -0.00787,-0.008 -0.013663,-0.0186 -0.023625,-0.0236 -0.062996,0 0.00787,0.008 -0.023625,-0.0236 -0.00557,-0.006 -0.029962,0.005 -0.023625,0 0.076147,-0.0561 0.1576543,-0.10463 0.2364818,-0.15694"
       id="path4649"
       inkscape:connector-curvature="0" />
    <path
       style="fill:none;stroke:#000000;stroke-width:0.2645846px;stroke-linecap:butt;stroke-linejoin:miter;stroke-opacity:1"
       d="m 3.1182926,284.14831 c -0.031892,0.0899 -0.1295584,0.0735 -0.1889888,0.11811 -0.017817,0.0134 -0.029429,0.0339 -0.047247,0.0473 -0.014087,0.0106 -0.032597,0.0139 -0.047247,0.0236 -0.054272,0.0362 0.010131,0.0135 -0.047247,0.0709 -0.00557,0.006 -0.018055,-0.006 -0.023625,0 -0.00557,0.006 0,0.0157 0,0.0236 0,0.0168 -0.00305,0.13564 0,0.14174 0.00498,0.01 0.018643,0.0137 0.023625,0.0236 0.00704,0.0141 -0.011136,0.0361 0,0.0472 0.00557,0.006 0.018055,-0.006 0.023625,0 0.011136,0.0111 -0.011136,0.0361 0,0.0472 0.011136,0.0111 0.036111,-0.0111 0.047247,0 0.00557,0.006 -0.00557,0.0181 0,0.0236 0.00557,0.006 0.018055,-0.006 0.023625,0 0.00557,0.006 -0.00352,0.0166 0,0.0236 0.00498,0.01 0.018643,0.0137 0.023625,0.0236 0.00352,0.007 -0.00352,0.0166 0,0.0236 0.00498,0.01 0.018643,0.0137 0.023625,0.0236 0.00352,0.007 -0.00557,0.0181 0,0.0236 0.015412,0.0154 0.031834,-0.0154 0.047247,0 0.00557,0.006 -0.00557,0.0181 0,0.0236 0.00557,0.006 0.016582,-0.004 0.023625,0 0.00996,0.005 0.013663,0.0186 0.023625,0.0236 0.00704,0.004 0.018055,-0.006 0.023625,0 0.00557,0.006 -0.00352,0.0166 0,0.0236 0.00498,0.01 0.018643,0.0137 0.023625,0.0236 0.00352,0.007 -0.00557,0.0181 0,0.0236 0.00557,0.006 0.018055,-0.006 0.023625,0 0.00557,0.006 -0.00557,0.018 0,0.0236 0.011136,0.0111 0.036111,-0.0111 0.047247,0 0.00557,0.006 -0.00352,0.0166 0,0.0236 0.00996,0.0199 0.037287,0.0273 0.047247,0.0473 0.00352,0.007 -0.00352,0.0166 0,0.0236 0.026117,0.0522 0.014661,0.007 0.047247,0.0236 0.050695,0.0253 0.00108,0.0258 0.023625,0.0709 0.00352,0.007 0.018055,-0.006 0.023625,0 0.00557,0.006 0,0.0158 0,0.0236 0,0.006 7.673e-4,0.0701 0,0.0709 -0.00557,0.006 -0.016582,-0.004 -0.023625,0 -0.00996,0.005 -0.015748,0.0157 -0.023625,0.0236 -0.00787,0.008 -0.018643,0.0137 -0.023625,0.0236 -0.00352,0.007 0.00352,0.0166 0,0.0236 -0.00498,0.01 -0.018643,0.0137 -0.023625,0.0236 -0.00352,0.007 0.00557,0.0181 0,0.0236 -0.00557,0.006 -0.018055,-0.006 -0.023625,0 -0.00557,0.006 0.00557,0.018 0,0.0236 -0.011136,0.0111 -0.036111,-0.0111 -0.047247,0 -0.00557,0.006 0.00352,0.0166 0,0.0236 -0.00498,0.01 -0.018643,0.0137 -0.023625,0.0236 -0.00704,0.0141 0.011136,0.0361 0,0.0472 -0.00557,0.006 -0.018055,-0.006 -0.023625,0 -7.673e-4,7.7e-4 0,0.0651 0,0.0709"
       id="path5210"
       inkscape:connector-curvature="0" />
    <path
       style="fill:none;stroke:#000000;stroke-width:0.2645846px;stroke-linecap:butt;stroke-linejoin:miter;stroke-opacity:1"
       d="m 7.1106851,284.80977 c 0.00787,0.0315 0.011565,0.0643 0.023625,0.0945 0.0092,0.023 0.059241,0.0476 0.070871,0.0709 0.00704,0.0141 -0.011136,0.0361 0,0.0473 0.00557,0.006 0.018055,-0.006 0.023625,0 0.011136,0.0111 -0.011136,0.0361 0,0.0473 0.00557,0.006 0.018055,-0.006 0.023625,0 0.011136,0.0111 -0.011136,0.0361 0,0.0472 0.00557,0.006 0.018055,-0.006 0.023625,0 0.00483,0.005 -0.00468,0.0615 0,0.0709 0.049158,0.0983 -0.00164,-0.0253 0.047247,0.0236 0.00557,0.006 0,0.0158 0,0.0236 0,0.063 0,0.12599 0,0.18899 0,0.0394 0,0.0788 0,0.11812 0,0.008 0.00557,0.0181 0,0.0236 -0.00557,0.006 -0.018055,-0.006 -0.023625,0 -0.048878,0.0489 0.074692,-0.002 -0.023625,0.0473 -0.00704,0.004 -0.018055,-0.006 -0.023625,0 -0.00557,0.006 0.00557,0.018 0,0.0236 -0.00568,0.006 -0.08881,-0.006 -0.094495,0 -0.011136,0.0111 0.00704,0.0332 0,0.0472 -0.00498,0.01 -0.018643,0.0137 -0.023625,0.0236 -0.00352,0.007 0.00557,0.0181 0,0.0236 -0.00557,0.006 -0.018055,-0.006 -0.023625,0 -0.00557,0.006 0.00557,0.0181 0,0.0236 -0.015719,0.0157 -0.031529,-0.0157 -0.047247,0 -0.00557,0.006 0.00557,0.0181 0,0.0236 -0.00557,0.006 -0.018055,-0.006 -0.023625,0 -0.00557,0.006 0.00557,0.0181 0,0.0236 -0.00557,0.006 -0.018055,-0.006 -0.023625,0 -0.011136,0.0111 0.011136,0.0361 0,0.0472 -0.00557,0.006 -0.018055,-0.006 -0.023625,0 -7.673e-4,7.7e-4 0,0.0652 0,0.0709 0,0.0111 -0.00106,0.11704 0,0.11811 0.00557,0.006 0.018055,-0.006 0.023625,0 0.011136,0.0111 -0.011136,0.0361 0,0.0473 0.00557,0.006 0.018055,-0.006 0.023625,0 0.011811,0.0118 -0.011811,0.0591 0,0.0709 0.00557,0.006 0.018055,-0.006 0.023625,0 0.023305,0.0233 -0.048407,0.0472 0.023625,0.0472"
       id="path5234"
       inkscape:connector-curvature="0" />
  </g>
</svg>
