<?xml version="1.0" encoding="UTF-8" standalone="no"?>
<!-- Created with Inkscape (http://www.inkscape.org/) -->

<svg
   xmlns:osb="http://www.openswatchbook.org/uri/2009/osb"
   xmlns:dc="http://purl.org/dc/elements/1.1/"
   xmlns:cc="http://creativecommons.org/ns#"
   xmlns:rdf="http://www.w3.org/1999/02/22-rdf-syntax-ns#"
   xmlns:svg="http://www.w3.org/2000/svg"
   xmlns="http://www.w3.org/2000/svg"
   xmlns:sodipodi="http://sodipodi.sourceforge.net/DTD/sodipodi-0.dtd"
   xmlns:inkscape="http://www.inkscape.org/namespaces/inkscape"
   width="40"
   height="80"
   viewBox="0 0 10.583332 21.166767"
   version="1.1"
   id="svg8"
   sodipodi:docname="young_male_player.svg"
   inkscape:version="0.92.4 (5da689c313, 2019-01-14)">
  <defs
     id="defs2">
    <linearGradient
       id="linearGradient4542"
       osb:paint="solid">
      <stop
         style="stop-color:#00ff00;stop-opacity:1;"
         offset="0"
         id="stop4540" />
    </linearGradient>
    <inkscape:path-effect
       effect="bspline"
       id="path-effect3799"
       is_visible="true"
       weight="33.333333"
       steps="2"
       helper_size="0"
       apply_no_weight="true"
       apply_with_weight="true"
       only_selected="false" />
  </defs>
  <sodipodi:namedview
     id="base"
     pagecolor="#ffffff"
     bordercolor="#666666"
     borderopacity="1.0"
     inkscape:pageopacity="0.0"
     inkscape:pageshadow="2"
     inkscape:zoom="11.2"
     inkscape:cx="29.650334"
     inkscape:cy="22.588531"
     inkscape:document-units="px"
     inkscape:current-layer="layer1"
     showgrid="false"
     units="px"
     inkscape:window-width="3840"
     inkscape:window-height="2066"
     inkscape:window-x="2509"
     inkscape:window-y="-11"
     inkscape:window-maximized="1" />
  <metadata
     id="metadata5">
    <rdf:RDF>
      <cc:Work
         rdf:about="">
        <dc:format>image/svg+xml</dc:format>
        <dc:type
           rdf:resource="http://purl.org/dc/dcmitype/StillImage" />
        <dc:title />
      </cc:Work>
    </rdf:RDF>
  </metadata>
  <g
     inkscape:label="Layer 1"
     inkscape:groupmode="layer"
     id="layer1"
     transform="translate(0,-275.83279)">
    <rect
       id="rect3713"
       width="3.2767568"
       height="9.888257"
       x="3.3880761"
       y="285.86719"
       style="fill:#800080;stroke-width:0.30426219"
       inkscape:export-xdpi="96"
       inkscape:export-ydpi="96" />
    <ellipse
       id="path3722"
       cx="5.0264544"
       cy="285.86719"
       style="fill:#800080;stroke-width:0.39357868"
       inkscape:export-xdpi="96"
       inkscape:export-ydpi="96"
       rx="1.6383784"
       ry="1.6480428" />
    <ellipse
       style="fill:#333333;stroke-width:0.39993775"
       id="path3726"
       cx="6.9249697"
       cy="295.67569"
       rx="1.7092493"
       ry="1.2286748"
       inkscape:export-xdpi="96"
       inkscape:export-ydpi="96" />
    <ellipse
       style="fill:#333333;stroke-width:0.39993775"
       id="path3726-3"
       cx="3.5769739"
       cy="295.75314"
       rx="1.7092493"
       ry="1.2286748"
       inkscape:export-xdpi="96"
       inkscape:export-ydpi="96" />
    <ellipse
       style="fill:#ffffff;stroke-width:0.40718126"
       id="path3745"
       cx="4.5206208"
       cy="287.07404"
       ry="0.65921718"
       rx="0.51277477"
       inkscape:export-xdpi="96"
       inkscape:export-ydpi="96" />
    <path
       style="fill:none;stroke:#000000;stroke-width:0.30022779px;stroke-linecap:butt;stroke-linejoin:miter;stroke-opacity:1"
       d="M 4.3427548,288.9318 H 6.0520043"
       id="path3749"
       inkscape:connector-curvature="0"
       inkscape:export-xdpi="96"
       inkscape:export-ydpi="96" />
    <circle
       style="fill:#ffffff;stroke-width:0.32094839"
       id="path3745-8"
       cx="0.93141234"
       cy="290.03076"
       r="0" />
    <ellipse
       rx="0.51277477"
       ry="0.65921718"
       cy="287.07404"
       cx="4.5136795"
       id="ellipse3780"
       style="fill:#ffffff;stroke-width:0.40718126"
       inkscape:export-xdpi="96"
       inkscape:export-ydpi="96" />
    <ellipse
       rx="0.51277477"
       ry="0.65921718"
       cy="287.08817"
       cx="5.8810797"
       id="ellipse3780-9"
       style="fill:#ffffff;stroke-width:0.40718126"
       inkscape:export-xdpi="96"
       inkscape:export-ydpi="96" />
    <ellipse
       style="fill:#000000;stroke-width:0.78821427"
       id="path3801"
       cx="4.5339475"
       cy="287.10263"
       inkscape:export-xdpi="96"
       inkscape:export-ydpi="96"
       rx="0.17092495"
       ry="0.16480429" />
    <ellipse
       style="fill:#000000;stroke-width:0.78821439"
       id="path3801-5"
       cx="5.896564"
       cy="287.10263"
       inkscape:export-xdpi="96"
       inkscape:export-ydpi="96"
       rx="0.17092495"
       ry="0.16480429" />
    <path
       style="fill:#803980;fill-opacity:1;stroke-width:0.1322923;stroke-miterlimit:4;stroke-dasharray:none"
       id="path5348"
       d="m -22.80116,285.26055 c 0.01428,0.24827 0.03398,0.49594 0.05809,0.74345 0.02766,0.29812 0.04485,0.5971 0.0588,0.89614 0.01797,0.2869 0.02761,0.57419 0.04335,0.8612 0.01391,0.2451 0.01857,0.49062 0.02075,0.73607 0.0025,0.27303 0.0021,0.54594 -0.0056,0.81887 -0.01428,0.28801 -0.02752,0.57603 -0.03472,0.86431 -0.0055,0.25467 -0.0058,0.50941 -0.0054,0.76412 4.8e-5,0.081 5.56e-4,0.16202 0.0011,0.24303 0,0 -0.311812,0.1589 -0.311812,0.1589 v 0 c 4.23e-4,-0.0814 8.46e-4,-0.1628 0.0011,-0.24421 0.0012,-0.25526 0.0022,-0.51054 0.0069,-0.76577 0.007,-0.28842 0.02108,-0.57649 0.03515,-0.86463 0.0071,-0.27234 0.0087,-0.54467 0.0049,-0.8171 -0.0026,-0.24507 -0.0062,-0.49019 -0.01968,-0.73494 -0.01451,-0.28736 -0.02452,-0.57492 -0.04202,-0.86213 -0.01382,-0.29837 -0.03139,-0.5967 -0.05872,-0.89415 -0.02486,-0.24679 -0.04407,-0.49383 -0.06291,-0.74109 0,0 0.310754,-0.16207 0.310754,-0.16207 z"
       inkscape:connector-curvature="0" />
    <path
       style="fill:#803980;fill-opacity:1;stroke-width:0.1322923;stroke-miterlimit:4;stroke-dasharray:none"
       id="path5350"
       d="m -22.47526,290.89003 c 0.13126,0.0286 0.263782,0.0591 0.397954,0.0709 0.08509,0.008 0.118862,0.004 0.203377,5.6e-4 0.177221,-0.016 0.352256,-0.0547 0.520664,-0.11162 0.350084,-0.12685 0.695708,-0.2656 1.043666,-0.39816 0.360597,-0.13702 0.721997,-0.27417 1.091068,-0.38713 0.190117,-0.0582 0.28035,-0.0787 0.468146,-0.12615 0.208468,-0.0523 0.420763,-0.0853 0.633078,-0.11675 0.15016,-0.0284 0.399145,-0.18937 -0.125165,0.10414 0.03058,-0.0256 0.01831,-0.0473 0.0082,-0.0801 -0.01223,-0.0435 -0.01696,-0.0888 -0.01557,-0.13384 0.0093,-0.0635 0.05282,-0.11256 0.09337,-0.15936 0.05708,-0.064 0.114723,-0.12726 0.169116,-0.19356 0.04459,-0.0494 0.04735,-0.0752 0.0099,-0.13043 -0.07646,-0.0957 -0.148562,-0.19462 -0.220368,-0.29378 -0.09802,-0.13925 -0.170173,-0.29464 -0.235887,-0.45113 -0.04985,-0.11605 -0.09216,-0.23522 -0.114167,-0.35975 -0.01683,-0.0709 -0.02118,-0.14383 -0.03386,-0.2153 -0.01085,-0.0437 -0.01703,-0.0883 -0.02786,-0.13205 -0.01379,-0.0343 -0.02585,-0.0697 -0.04774,-0.0997 -0.01616,-0.0297 -0.03481,-0.0546 -0.0616,-0.0753 -0.03746,-0.0258 -0.07413,-0.0528 -0.109694,-0.0813 -0.0568,-0.045 -0.122819,-0.0757 -0.182769,-0.116 -0.04742,-0.0302 -0.09448,-0.0606 -0.140517,-0.0928 -0.03339,-0.0267 -0.07084,-0.0419 -0.109535,-0.0585 -0.06478,-0.0214 -0.12398,-0.0555 -0.18555,-0.0845 -0.09913,-0.0591 -0.198013,-0.11838 -0.298999,-0.17422 -0.124121,-0.0691 -0.249659,-0.13574 -0.375455,-0.20177 -0.114279,-0.0565 -0.225,-0.11952 -0.337376,-0.17962 -0.132091,-0.0749 -0.274199,-0.12814 -0.414533,-0.18481 -0.196575,-0.0816 -0.395288,-0.15752 -0.594449,-0.23256 -0.283557,-0.10857 -0.563681,-0.22564 -0.844182,-0.34176 -0.36652,-0.162 -0.734075,-0.32183 -1.09872,-0.48802 -0.473281,-0.21668 -0.953208,-0.41816 -1.436829,-0.61046 -0.563254,-0.22751 -1.131586,-0.44189 -1.701583,-0.65181 -0.415157,-0.15085 -0.831621,-0.29935 -1.251885,-0.43554 -0.258843,-0.0839 -0.417551,-0.12827 -0.679487,-0.20493 -0.718713,-0.20933 -1.448217,-0.37869 -2.176613,-0.5503 -0.436856,-0.10577 -0.872426,-0.21646 -1.302511,-0.34724 0,0 0.282738,-0.19273 0.282738,-0.19273 v 0 c 0.426016,0.1342 0.85832,0.24622 1.292329,0.35149 0.728097,0.17438 1.458089,0.34284 2.177248,0.55193 0.26214,0.0767 0.422283,0.12146 0.681409,0.20528 0.420827,0.13611 0.83768,0.28495 1.253461,0.43559 0.5702,0.211 1.140332,0.42238 1.703601,0.65142 0.485013,0.19203 0.966417,0.39295 1.441044,0.60956 0.36594,0.16415 0.733375,0.32507 1.101152,0.48505 0.28088,0.11571 0.561826,0.23137 0.845822,0.33929 0.200132,0.0747 0.399856,0.15023 0.597423,0.23154 0.141708,0.0566 0.284222,0.1122 0.417431,0.1875 0.112208,0.0603 0.223721,0.12174 0.337305,0.1794 0.125738,0.0667 0.251381,0.13356 0.376053,0.20218 0.100581,0.0555 0.19816,0.11616 0.298734,0.17165 0.0614,0.0289 0.121502,0.0605 0.185941,0.0823 0.04099,0.0166 0.07739,0.0393 0.113466,0.0648 0.04603,0.0315 0.09243,0.0624 0.139394,0.0925 0.06153,0.0396 0.127616,0.0722 0.184815,0.11834 0.03631,0.0282 0.07426,0.0542 0.110935,0.0818 0.027,0.0243 0.04917,0.051 0.06628,0.0832 0.02352,0.0343 0.03831,0.0728 0.05383,0.11118 0.01128,0.0444 0.01811,0.0894 0.02858,0.13401 0.01428,0.0715 0.01516,0.14551 0.03305,0.21658 0.01931,0.12254 0.0593,0.24 0.108523,0.35373 0.06349,0.15446 0.135036,0.30723 0.231649,0.44408 0.07268,0.0993 0.146325,0.19779 0.223844,0.29334 0.0367,0.0555 0.06042,0.11542 0.01047,0.17118 -0.05671,0.0645 -0.110088,0.13208 -0.169241,0.19454 -0.03872,0.0422 -0.0794,0.0846 -0.101767,0.13821 -0.006,0.0405 5.29e-4,0.0821 0.0096,0.1218 0.01195,0.0397 0.03282,0.0761 0.0082,0.11585 -0.173413,0.10555 -0.292354,0.21165 -0.481908,0.24018 -0.20853,0.0308 -0.41748,0.0599 -0.622002,0.11272 -0.194857,0.0493 -0.265327,0.0646 -0.463835,0.12576 -0.369006,0.11361 -0.730303,0.25118 -1.090758,0.38896 -0.35129,0.13441 -0.699419,0.27726 -1.053646,0.40377 -0.170867,0.0535 -0.347123,0.0925 -0.526289,0.10323 -0.09109,0.001 -0.114738,0.004 -0.206464,-0.005 -0.13548,-0.014 -0.26907,-0.0445 -0.402198,-0.072 0,0 0.288206,-0.19928 0.288206,-0.19928 z"
       inkscape:connector-curvature="0" />
  </g>
</svg>
